# xmcd
#
# Track frame offsets: 
#        150
#        11307
#        20871
#        39358
#        54566
#        67159
#        81946
#        95465
#        111335
#        124188
#        142906
#        161899
#        170889
#        186215
#
# Disc length: 2671 seconds
#
# Revision: 0
# Processed by: cddbd v1.5.2PL0 Copyright (c) Steve Scherf et al.
# Submitted via: ExactAudioCopyFreeDBPlugin 1.0
#
DISCID=c60a6d0e
DTITLE=Various Artist - Country Spectacular vol1
DYEAR=1999
DGENRE=Country
TTITLE0=Tammy Wynette - Divorce
TTITLE1=Porter Wagoner - Louisiana Saturday Night
TTITLE2=Nitty Gritty Dirt Band - Mr.Bojangles
TTITLE3=Tom T. Hall - Old Dogs.Children .Watermelon Man
TTITLE4=Faron Young - It's four in the morning
TTITLE5=Lorrie Morgan - Please Mr.Please
TTITLE6=Lee Greenwood - I'll Never Stop Loving You
TTITLE7=Earl Thomas Conley - Angel in Disguise
TTITLE8=Charlie Rich - Behind Closed Doors
TTITLE9=TG Sheppard - Without You
TTITLE10=Tanya Tucker - Delta Dawn
TTITLE11=Rex Allen - Drink it down,lady
TTITLE12=George Jones - She's my rock
TTITLE13=Dottie West&Terry West - What Are you Do in Love?
EXTD=
EXTT0=
EXTT1=
EXTT2=
EXTT3=
EXTT4=
EXTT5=
EXTT6=
EXTT7=
EXTT8=
EXTT9=
EXTT10=
EXTT11=
EXTT12=
EXTT13=
PLAYORDER=
